HIERARCHY
ROOT Hips
{
	OFFSET 0.000000 0.000000 0.000000
	CHANNELS 6 Xposition Yposition Zposition Xrotation Yrotation Zrotation
	JOINT LeftUpLeg_virtual
	{
		OFFSET 0.000000 0.000000 0.000000
		CHANNELS 3 Xrotation Yrotation Zrotation
		JOINT LeftUpLeg
		{
			OFFSET 13.026900 -6.336304 -1.092800
			CHANNELS 3 Xrotation Yrotation Zrotation
			JOINT LeftLeg
			{
				OFFSET 0.524474 -46.096886 9.782700
				CHANNELS 3 Xrotation Yrotation Zrotation
				JOINT LeftFoot
				{
					OFFSET -0.524474 -53.427422 -12.948200
					CHANNELS 3 Xrotation Yrotation Zrotation
					JOINT LeftToeBase
					{
						OFFSET 0.192200 -14.009700 16.364100
						CHANNELS 3 Xrotation Yrotation Zrotation
						JOINT LeftToe_End
						{
							OFFSET -1.784700 -0.561700 9.474800
							CHANNELS 3 Xrotation Yrotation Zrotation
							End Site
							{
								OFFSET 0 0 0
							}
						}
					}
				}
			}
		}
	}
	JOINT RightUpLeg_virtual
	{
		OFFSET 0.000000 0.000000 0.000000
		CHANNELS 3 Xrotation Yrotation Zrotation
		JOINT RightUpLeg
		{
			OFFSET -12.883000 -6.336304 -1.092800
			CHANNELS 3 Xrotation Yrotation Zrotation
			JOINT RightLeg
			{
				OFFSET -0.524587 -46.096825 9.782800
				CHANNELS 3 Xrotation Yrotation Zrotation
				JOINT RightFoot
				{
					OFFSET 0.524587 -53.427383 -12.948300
					CHANNELS 3 Xrotation Yrotation Zrotation
					JOINT RightToeBase
					{
						OFFSET -0.192200 -14.009700 16.364100
						CHANNELS 3 Xrotation Yrotation Zrotation
						JOINT RightToe_End
						{
							OFFSET 1.784700 -0.561700 9.474800
							CHANNELS 3 Xrotation Yrotation Zrotation
							End Site
							{
								OFFSET 0 0 0
							}
						}
					}
				}
			}
		}
	}
	JOINT Spine_virtual
	{
		OFFSET 0.000000 0.000000 0.000000
		CHANNELS 3 Xrotation Yrotation Zrotation
		JOINT Spine
		{
			OFFSET 0.072000 7.257294 -0.789700
			CHANNELS 3 Xrotation Yrotation Zrotation
			JOINT Spine1
			{
				OFFSET 0.000000 12.508769 -0.658067
				CHANNELS 3 Xrotation Yrotation Zrotation
				JOINT Spine1_split
				{
					OFFSET 0.000000 12.508769 -0.658067
					CHANNELS 3 Xrotation Yrotation Zrotation
					JOINT Spine2
					{
						OFFSET 0.000000 12.508769 -0.658067
						CHANNELS 3 Xrotation Yrotation Zrotation
						JOINT Neck_virtual
						{
							OFFSET 0.000000 0.000000 0.000000
							CHANNELS 3 Xrotation Yrotation Zrotation
							JOINT Neck
							{
								OFFSET 0.000000 14.033295 7.520400
								CHANNELS 3 Xrotation Yrotation Zrotation
								JOINT Head
								{
									OFFSET 0.000000 8.198502 5.703100
									CHANNELS 3 Xrotation Yrotation Zrotation
									JOINT HeadTop_End
									{
										OFFSET 0.000000 17.760803 13.332701
										CHANNELS 3 Xrotation Yrotation Zrotation
										End Site
										{
											OFFSET 0 0 0
										}
									}
								}
							}
						}
						JOINT LeftShoulder_virtual
						{
							OFFSET 0.000000 0.000000 0.000000
							CHANNELS 3 Xrotation Yrotation Zrotation
							JOINT LeftShoulder
							{
								OFFSET 6.292450 5.785301 -0.669000
								CHANNELS 3 Xrotation Yrotation Zrotation
								JOINT LeftShoulder_split
								{
									OFFSET 6.292450 5.785301 -0.669000
									CHANNELS 3 Xrotation Yrotation Zrotation
									JOINT LeftArm
									{
										OFFSET 13.907140 -6.093903 1.965100
										CHANNELS 3 Xrotation Yrotation Zrotation
										JOINT LeftForeArm
										{
											OFFSET 34.140198 0.000000 0.000000
											CHANNELS 3 Xrotation Yrotation Zrotation
											JOINT LeftHand
											{
												OFFSET 40.960209 0.000000 0.000000
												CHANNELS 3 Xrotation Yrotation Zrotation
												End Site
												{
													OFFSET 0 0 0
												}
											}
										}
									}
								}
							}
						}
						JOINT RightShoulder_virtual
						{
							OFFSET 0.000000 0.000000 0.000000
							CHANNELS 3 Xrotation Yrotation Zrotation
							JOINT RightShoulder
							{
								OFFSET -6.292450 5.785301 -0.669000
								CHANNELS 3 Xrotation Yrotation Zrotation
								JOINT RightShoulder_split
								{
									OFFSET -6.292450 5.785301 -0.669000
									CHANNELS 3 Xrotation Yrotation Zrotation
									JOINT RightArm
									{
										OFFSET -13.907140 -6.093903 1.965100
										CHANNELS 3 Xrotation Yrotation Zrotation
										JOINT RightForeArm
										{
											OFFSET -34.140198 0.000000 0.000000
											CHANNELS 3 Xrotation Yrotation Zrotation
											JOINT RightHand
											{
												OFFSET -40.960209 0.000000 0.000000
												CHANNELS 3 Xrotation Yrotation Zrotation
												End Site
												{
													OFFSET 0 0 0
												}
											}
										}
									}
								}
							}
						}
					}
				}
			}
		}
	}
}
MOTION
Frames: 4
Frame Time: 0.03333333
-0.714733 114.534973 -0.014702 0.000000 0.000000 0.000000 -5.271693 -2.630766 0.488766 -2.580337 5.061420 7.511608 13.767362 10.525067 0.060511 -6.649593 3.959832 -8.769393 1.428260 0.252687 -1.217568 0.000000 0.000000 0.000000 -4.908828 -2.327722 0.326310 -0.051937 -9.038164 -9.028959 14.739698 -7.811960 1.973116 -5.715121 -5.568273 5.053660 -3.919911 0.044106 -0.063452 0.000000 0.000000 0.000000 -4.438835 -2.724380 -0.200835 3.342142 1.831264 -2.011605 1.239081 0.206715 0.171665 0.921717 -1.290169 0.132692 0.000000 0.000000 0.000000 0.797996 0.715678 -0.023551 3.089001 0.274418 -0.016065 18.385956 -11.573641 0.335865 0.000000 0.000000 0.000000 0.871527 0.546728 0.010778 2.822651 -3.932410 -12.534732 -1.211935 -1.000164 -1.763491 -4.105717 -7.833517 -58.859947 -1.234088 -13.079113 0.383535 0.000000 0.000000 0.000000 0.819587 0.340019 0.019858 2.424641 0.729879 15.556461 -0.601069 2.083599 -2.051539 -1.537893 8.630335 64.717825 0.191909 15.874273 1.079128 0.000000 0.000000 0.000000 
-0.681471 114.561417 -0.378326 0.000000 0.000000 0.000000 -5.403599 -2.543870 0.526074 -2.655798 4.916041 7.467778 13.905812 10.398919 0.065539 -6.610395 3.791070 -8.873509 1.362977 0.248396 -1.194793 0.000000 0.000000 0.000000 -5.044181 -2.116678 0.359674 -0.060821 -9.152503 -9.078144 14.654041 -7.771954 1.931810 -5.703560 -5.685934 4.966549 -3.555608 0.034695 -0.042674 0.000000 0.000000 0.000000 -4.497758 -2.441431 -0.080594 3.398423 1.915241 -1.959302 1.254898 0.245556 0.148341 1.006710 -1.023639 0.221167 0.000000 0.000000 0.000000 0.749830 0.715277 -0.021425 3.115852 0.176640 -0.030025 18.369483 -11.646563 0.409519 0.000000 0.000000 0.000000 0.863124 0.569988 -0.027184 2.799367 -3.805896 -12.609182 -1.356251 -0.582752 -2.016313 -3.313638 -7.172111 -58.697396 -1.226929 -12.543030 0.406394 0.000000 0.000000 0.000000 0.852439 0.395250 -0.002962 2.403829 0.905126 15.548818 -0.680082 2.463228 -2.244947 -2.229688 8.951402 64.675225 0.259472 16.485295 0.959530 0.000000 0.000000 0.000000 
-0.729978 114.516304 -0.814819 0.000000 0.000000 0.000000 -5.618032 -2.011076 0.663657 -2.889513 4.749359 7.356428 14.269070 10.214236 0.035979 -6.738751 3.477291 -8.886439 1.273653 0.238210 -1.153688 0.000000 0.000000 0.000000 -5.287124 -1.480680 0.491485 -0.170679 -9.234943 -9.185092 14.962125 -7.742303 1.911897 -5.842991 -6.074913 4.841028 -3.345566 0.016145 -0.028250 0.000000 0.000000 0.000000 -4.712016 -1.867657 0.106928 3.582504 2.059003 -1.874251 1.284061 0.298053 0.137432 1.075086 -0.964606 0.257473 0.000000 0.000000 0.000000 0.711800 0.734148 -0.003222 3.049237 0.043097 -0.035844 18.311758 -11.932876 0.580980 0.000000 0.000000 0.000000 0.877853 0.600800 -0.049208 2.772927 -3.715362 -12.642822 -1.545181 -0.417820 -2.072857 -2.322446 -6.041911 -58.734907 -1.123015 -11.659858 0.448559 0.000000 0.000000 0.000000 0.902425 0.468330 -0.006554 2.366027 1.121558 15.579277 -0.610931 2.582779 -2.313342 -3.229289 9.783595 64.360312 0.338370 17.500731 0.842378 0.000000 0.000000 0.000000 
-0.869116 114.424652 -1.237907 0.000000 0.000000 0.000000 -5.886363 -1.142605 0.858670 -3.235331 4.586668 7.217572 14.831192 9.994466 -0.013959 -7.034037 3.074154 -8.797482 1.189409 0.223852 -1.107338 0.000000 0.000000 0.000000 -5.626095 -0.570215 0.690879 -0.329390 -9.269157 -9.306523 15.585278 -7.727550 1.906245 -6.147770 -6.689614 4.665292 -3.247845 -0.013079 -0.017007 0.000000 0.000000 0.000000 -5.035780 -1.119971 0.318750 3.854934 2.249222 -1.777952 1.312114 0.353598 0.138945 1.106430 -0.987268 0.255520 0.000000 0.000000 0.000000 0.694490 0.768358 0.026799 2.899317 -0.106755 -0.038529 18.239062 -12.395068 0.833431 0.000000 0.000000 0.000000 0.917582 0.638175 -0.044218 2.758580 -3.658673 -12.618325 -1.644280 -0.552442 -1.962780 -1.291105 -4.677082 -58.942723 -0.944147 -10.697733 0.486388 0.000000 0.000000 0.000000 0.958210 0.543054 0.010026 2.313757 1.344948 15.678248 -0.459261 2.460883 -2.235834 -4.264602 10.866397 63.857932 0.425292 18.752047 0.743775 0.000000 0.000000 0.000000 
